<svg width="303" height="88" viewBox="0 0 303 88" fill="none" xmlns="http://www.w3.org/2000/svg">
<path d="M0 40C0 42.7614 2.23858 45 5 45C7.76142 45 10 42.7614 10 40H0ZM5 0L0 0L0 40H5H10L10 0L5 0Z" fill="#2F4157"/>
<path d="M4.98294 36C2.22154 36.0095 -0.00939289 38.2557 3.17197e-05 41.0171C0.00945633 43.7785 2.25567 46.0094 5.01707 46L4.98294 36ZM298 40L297.983 35L4.98294 36L5 41L5.01707 46L298.017 45L298 40Z" fill="#2F4157"/>
<path d="M303 40C303 37.2386 300.761 35 298 35C295.239 35 293 37.2386 293 40H303ZM298 88H303V40H298H293V88H298Z" fill="#2F4157"/>
<path d="M98 38.5C96.6193 38.5 95.5 39.6193 95.5 41C95.5 42.3807 96.6193 43.5 98 43.5V38.5ZM139 41L114 26.5662V55.4338L139 41ZM98 41V43.5H116.5V41V38.5H98V41Z" fill="#2F4157"/>
</svg>
