<svg width="121" height="142" viewBox="0 0 121 142" fill="none" xmlns="http://www.w3.org/2000/svg">
<g filter="url(#filter0_d_412_560)">
<path d="M116 34C116 15.7746 101.225 1 83 1H38C19.7746 1 5 15.7746 5 34V79C5 97.2254 19.7746 112 38 112H83C101.225 112 116 97.2254 116 79V34Z" fill="#2F4157" shape-rendering="crispEdges"/>
<path d="M38 0.849609C19.6918 0.849609 4.84961 15.6918 4.84961 34V79C4.84961 97.3082 19.6918 112.15 38 112.15H83C101.308 112.15 116.15 97.3082 116.15 79V34C116.15 15.6918 101.308 0.849609 83 0.849609H38Z" stroke="#C5C5C5" stroke-width="0.3" shape-rendering="crispEdges"/>
<path d="M41.4432 39.0909H49.1818L59.5455 64.3864H59.9545L70.3182 39.0909H78.0568V74H71.9886V50.017H71.6648L62.017 73.8977H57.483L47.8352 49.9659H47.5114V74H41.4432V39.0909Z" fill="#F5F5F5"/>
<path d="M20.8658 48.9004C21.087 49.2507 21.5502 49.3553 21.9004 49.1342L27.6079 45.5305C27.9582 45.3093 28.0628 44.8461 27.8417 44.4959C27.6206 44.1457 27.1574 44.041 26.8071 44.2621L21.7338 47.4654L18.5305 42.3921C18.3093 42.0418 17.8461 41.9372 17.4959 42.1583C17.1457 42.3794 17.041 42.8426 17.2621 43.1929L20.8658 48.9004ZM32.5 28L31.9808 27.4587L32.5 28ZM87 28L87.5172 27.4568L87 28ZM21.5 48.5C22.2316 48.6653 22.2315 48.6654 22.2315 48.6655C22.2315 48.6654 22.2315 48.6655 22.2315 48.6654C22.2316 48.6652 22.2317 48.6649 22.2318 48.6643C22.232 48.6633 22.2324 48.6614 22.233 48.6588C22.2342 48.6536 22.2361 48.6454 22.2388 48.6342C22.244 48.6118 22.2521 48.5776 22.2631 48.5321C22.2852 48.4411 22.3189 48.3049 22.365 48.1279C22.4572 47.7738 22.5985 47.2565 22.7935 46.6101C23.1837 45.317 23.7882 43.5103 24.6433 41.4634C26.3583 37.3579 29.0597 32.3391 33.0192 28.5413L32.5 28L31.9808 27.4587C27.8103 31.459 25.0117 36.6901 23.2592 40.8852C22.3806 42.9884 21.7594 44.8447 21.3574 46.1768C21.1564 46.8431 21.0099 47.3791 20.9134 47.7501C20.8651 47.9356 20.8293 48.08 20.8053 48.1788C20.7933 48.2282 20.7843 48.2663 20.7782 48.2925C20.7751 48.3056 20.7728 48.3157 20.7712 48.3227C20.7704 48.3262 20.7697 48.329 20.7693 48.331C20.7691 48.332 20.7689 48.3328 20.7687 48.3334C20.7687 48.3337 20.7686 48.3341 20.7686 48.3342C20.7685 48.3345 20.7684 48.3347 21.5 48.5ZM32.5 28L33.0192 28.5413C39.7418 22.0931 50.9071 18.25 60 18.25V17.5V16.75C50.5813 16.75 39.0241 20.7031 31.9808 27.4587L32.5 28ZM60 17.5V18.25C68.9889 18.25 79.7816 22.1624 86.4828 28.5432L87 28L87.5172 27.4568C80.512 20.7867 69.338 16.75 60 16.75V17.5ZM87 28L86.4828 28.5432C91.6443 33.4578 94.4634 38.4886 95.9919 42.2797C96.7564 44.1758 97.1982 45.7621 97.4481 46.8682C97.5731 47.4211 97.6501 47.8538 97.6955 48.1448C97.7182 48.2903 97.733 48.4004 97.742 48.4723C97.7464 48.5083 97.7495 48.5348 97.7513 48.5513C97.7522 48.5596 97.7528 48.5654 97.7531 48.5687C97.7533 48.5704 97.7534 48.5714 97.7534 48.5718C97.7535 48.572 97.7535 48.572 97.7535 48.5719C97.7534 48.5719 97.7534 48.5717 97.7534 48.5716C97.7534 48.5714 97.7534 48.5711 98.5 48.5C99.2466 48.4289 99.2466 48.4285 99.2466 48.4281C99.2465 48.4279 99.2465 48.4275 99.2465 48.4271C99.2464 48.4264 99.2463 48.4254 99.2462 48.4244C99.246 48.4222 99.2457 48.4194 99.2453 48.416C99.2446 48.4091 99.2436 48.3997 99.2423 48.3878C99.2397 48.364 99.2359 48.3303 99.2305 48.2869C99.2196 48.2001 99.2027 48.0748 99.1776 47.9136C99.1273 47.5912 99.0441 47.1253 98.9112 46.5375C98.6456 45.362 98.1811 43.6978 97.3831 41.7187C95.7866 37.7593 92.8557 32.5401 87.5172 27.4568L87 28Z" fill="#F5F5F5"/>
<path d="M98.6342 64.5996C98.413 64.2493 97.9498 64.1447 97.5996 64.3658L91.8921 67.9695C91.5418 68.1907 91.4372 68.6539 91.6583 69.0041C91.8794 69.3543 92.3426 69.459 92.6929 69.2379L97.7662 66.0346L100.97 71.1079C101.191 71.4582 101.654 71.5628 102.004 71.3417C102.354 71.1206 102.459 70.6574 102.238 70.3071L98.6342 64.5996ZM87 85.5L87.5192 86.0413L87 85.5ZM32.5 85.5L33.0172 84.9568L32.5 85.5ZM98 65C97.2684 64.8347 97.2685 64.8346 97.2685 64.8345C97.2685 64.8346 97.2685 64.8345 97.2685 64.8346C97.2684 64.8348 97.2683 64.8351 97.2682 64.8357C97.268 64.8367 97.2676 64.8386 97.267 64.8412C97.2658 64.8464 97.2639 64.8546 97.2612 64.8658C97.256 64.8882 97.2479 64.9224 97.2369 64.9679C97.2148 65.0589 97.1811 65.1951 97.135 65.3721C97.0428 65.7262 96.9015 66.2435 96.7065 66.8899C96.3163 68.183 95.7118 69.9897 94.8567 72.0366C93.1417 76.1421 90.4403 81.1609 86.4808 84.9587L87 85.5L87.5192 86.0413C91.6897 82.041 94.4883 76.8099 96.2408 72.6148C97.1194 70.5116 97.7406 68.6553 98.1426 67.3232C98.3436 66.6569 98.4901 66.1209 98.5866 65.7499C98.6349 65.5644 98.6707 65.42 98.6947 65.3212C98.7067 65.2718 98.7157 65.2337 98.7218 65.2075C98.7249 65.1944 98.7272 65.1843 98.7288 65.1773C98.7296 65.1738 98.7303 65.171 98.7307 65.169C98.7309 65.168 98.7311 65.1672 98.7313 65.1666C98.7313 65.1663 98.7314 65.1659 98.7314 65.1658C98.7315 65.1655 98.7316 65.1653 98 65ZM87 85.5L86.4808 84.9587C79.7582 91.4069 68.5929 95.25 59.5 95.25V96V96.75C68.9187 96.75 80.4759 92.7969 87.5192 86.0413L87 85.5ZM59.5 96V95.25C50.5111 95.25 39.7184 91.3376 33.0172 84.9568L32.5 85.5L31.9828 86.0432C38.988 92.7133 50.162 96.75 59.5 96.75V96ZM32.5 85.5L33.0172 84.9568C27.8557 80.0422 25.0366 75.0114 23.5081 71.2203C22.7436 69.3242 22.3018 67.7379 22.0519 66.6318C21.9269 66.0789 21.8499 65.6462 21.8045 65.3552C21.7818 65.2097 21.767 65.0996 21.758 65.0277C21.7536 64.9917 21.7505 64.9652 21.7487 64.9487C21.7478 64.9404 21.7472 64.9346 21.7469 64.9313C21.7467 64.9296 21.7466 64.9286 21.7466 64.9282C21.7465 64.928 21.7465 64.928 21.7465 64.9281C21.7466 64.9281 21.7466 64.9283 21.7466 64.9284C21.7466 64.9286 21.7466 64.9289 21 65C20.2534 65.0711 20.2534 65.0715 20.2534 65.0719C20.2535 65.0721 20.2535 65.0725 20.2535 65.0729C20.2536 65.0736 20.2537 65.0746 20.2538 65.0756C20.254 65.0778 20.2543 65.0806 20.2547 65.084C20.2554 65.0909 20.2564 65.1003 20.2577 65.1122C20.2603 65.136 20.2641 65.1697 20.2695 65.2131C20.2804 65.2999 20.2973 65.4252 20.3224 65.5864C20.3727 65.9088 20.4559 66.3747 20.5888 66.9625C20.8544 68.138 21.3189 69.8022 22.1169 71.7813C23.7134 75.7407 26.6443 80.9599 31.9828 86.0432L32.5 85.5Z" fill="#F5F5F5"/>
</g>
<path d="M32.1477 129.364H34.7273L38.1818 137.795H38.3182L41.7727 129.364H44.3523V141H42.3295V133.006H42.2216L39.0057 140.966H37.4943L34.2784 132.989H34.1705V141H32.1477V129.364ZM49.0682 141.176C48.5152 141.176 48.017 141.078 47.5739 140.881C47.1345 140.68 46.786 140.384 46.5284 139.994C46.2746 139.604 46.1477 139.123 46.1477 138.551C46.1477 138.059 46.2386 137.652 46.4205 137.33C46.6023 137.008 46.8504 136.75 47.1648 136.557C47.4792 136.364 47.8333 136.218 48.2273 136.119C48.625 136.017 49.036 135.943 49.4602 135.898C49.9716 135.845 50.3864 135.797 50.7045 135.756C51.0227 135.71 51.2538 135.642 51.3977 135.551C51.5455 135.456 51.6193 135.311 51.6193 135.114V135.08C51.6193 134.652 51.4924 134.32 51.2386 134.085C50.9848 133.85 50.6193 133.733 50.142 133.733C49.6383 133.733 49.2386 133.843 48.9432 134.062C48.6515 134.282 48.4545 134.542 48.3523 134.841L46.4318 134.568C46.5833 134.038 46.8333 133.595 47.1818 133.239C47.5303 132.879 47.9564 132.61 48.4602 132.432C48.964 132.25 49.5208 132.159 50.1307 132.159C50.5511 132.159 50.9697 132.208 51.3864 132.307C51.803 132.405 52.1837 132.568 52.5284 132.795C52.8731 133.019 53.1496 133.324 53.358 133.71C53.5701 134.097 53.6761 134.58 53.6761 135.159V141H51.6989V139.801H51.6307C51.5057 140.044 51.3295 140.271 51.1023 140.483C50.8788 140.691 50.5966 140.86 50.2557 140.989C49.9186 141.114 49.5227 141.176 49.0682 141.176ZM49.6023 139.665C50.0152 139.665 50.3731 139.583 50.6761 139.42C50.9792 139.254 51.2121 139.034 51.375 138.761C51.5417 138.489 51.625 138.191 51.625 137.869V136.841C51.5606 136.894 51.4508 136.943 51.2955 136.989C51.1439 137.034 50.9735 137.074 50.7841 137.108C50.5947 137.142 50.4072 137.172 50.2216 137.199C50.036 137.225 49.875 137.248 49.7386 137.267C49.4318 137.309 49.1572 137.377 48.9148 137.472C48.6723 137.566 48.4811 137.699 48.3409 137.869C48.2008 138.036 48.1307 138.252 48.1307 138.517C48.1307 138.896 48.2689 139.182 48.5455 139.375C48.822 139.568 49.1742 139.665 49.6023 139.665ZM57.8011 135.886V141H55.7443V132.273H57.7102V133.756H57.8125C58.0133 133.267 58.3333 132.879 58.7727 132.591C59.2159 132.303 59.7633 132.159 60.4148 132.159C61.017 132.159 61.5417 132.288 61.9886 132.545C62.4394 132.803 62.7879 133.176 63.0341 133.665C63.2841 134.153 63.4072 134.746 63.4034 135.443V141H61.3466V135.761C61.3466 135.178 61.1951 134.722 60.892 134.392C60.5928 134.062 60.178 133.898 59.6477 133.898C59.2879 133.898 58.9678 133.977 58.6875 134.136C58.411 134.292 58.1932 134.517 58.0341 134.812C57.8788 135.108 57.8011 135.466 57.8011 135.886ZM71.0568 137.33V132.273H73.1136V141H71.1193V139.449H71.0284C70.8314 139.937 70.5076 140.337 70.0568 140.648C69.6098 140.958 69.0587 141.114 68.4034 141.114C67.8314 141.114 67.3258 140.987 66.8864 140.733C66.4508 140.475 66.1098 140.102 65.8636 139.614C65.6174 139.121 65.4943 138.527 65.4943 137.83V132.273H67.5511V137.511C67.5511 138.064 67.7027 138.504 68.0057 138.83C68.3087 139.155 68.7064 139.318 69.1989 139.318C69.5019 139.318 69.7955 139.244 70.0795 139.097C70.3636 138.949 70.5966 138.729 70.7784 138.438C70.964 138.142 71.0568 137.773 71.0568 137.33ZM77.7401 141.176C77.187 141.176 76.6889 141.078 76.2457 140.881C75.8063 140.68 75.4579 140.384 75.2003 139.994C74.9465 139.604 74.8196 139.123 74.8196 138.551C74.8196 138.059 74.9105 137.652 75.0923 137.33C75.2741 137.008 75.5223 136.75 75.8366 136.557C76.151 136.364 76.5052 136.218 76.8991 136.119C77.2969 136.017 77.7079 135.943 78.1321 135.898C78.6435 135.845 79.0582 135.797 79.3764 135.756C79.6946 135.71 79.9257 135.642 80.0696 135.551C80.2173 135.456 80.2912 135.311 80.2912 135.114V135.08C80.2912 134.652 80.1643 134.32 79.9105 134.085C79.6567 133.85 79.2912 133.733 78.8139 133.733C78.3101 133.733 77.9105 133.843 77.6151 134.062C77.3234 134.282 77.1264 134.542 77.0241 134.841L75.1037 134.568C75.2552 134.038 75.5052 133.595 75.8537 133.239C76.2022 132.879 76.6283 132.61 77.1321 132.432C77.6359 132.25 78.1927 132.159 78.8026 132.159C79.223 132.159 79.6416 132.208 80.0582 132.307C80.4749 132.405 80.8556 132.568 81.2003 132.795C81.545 133.019 81.8215 133.324 82.0298 133.71C82.242 134.097 82.348 134.58 82.348 135.159V141H80.3707V139.801H80.3026C80.1776 140.044 80.0014 140.271 79.7741 140.483C79.5507 140.691 79.2685 140.86 78.9276 140.989C78.5904 141.114 78.1946 141.176 77.7401 141.176ZM78.2741 139.665C78.687 139.665 79.045 139.583 79.348 139.42C79.651 139.254 79.884 139.034 80.0469 138.761C80.2135 138.489 80.2969 138.191 80.2969 137.869V136.841C80.2325 136.894 80.1226 136.943 79.9673 136.989C79.8158 137.034 79.6454 137.074 79.456 137.108C79.2666 137.142 79.0791 137.172 78.8935 137.199C78.7079 137.225 78.5469 137.248 78.4105 137.267C78.1037 137.309 77.8291 137.377 77.5866 137.472C77.3442 137.566 77.1529 137.699 77.0128 137.869C76.8726 138.036 76.8026 138.252 76.8026 138.517C76.8026 138.896 76.9408 139.182 77.2173 139.375C77.4938 139.568 77.8461 139.665 78.2741 139.665ZM86.473 129.364V141H84.4162V129.364H86.473Z" fill="#2F4157"/>
<defs>
<filter id="filter0_d_412_560" x="0.699951" y="0.699951" width="119.6" height="119.6" filterUnits="userSpaceOnUse" color-interpolation-filters="sRGB">
<feFlood flood-opacity="0" result="BackgroundImageFix"/>
<feColorMatrix in="SourceAlpha" type="matrix" values="0 0 0 0 0 0 0 0 0 0 0 0 0 0 0 0 0 0 127 0" result="hardAlpha"/>
<feOffset dy="4"/>
<feGaussianBlur stdDeviation="2"/>
<feComposite in2="hardAlpha" operator="out"/>
<feColorMatrix type="matrix" values="0 0 0 0 0 0 0 0 0 0 0 0 0 0 0 0 0 0 0.25 0"/>
<feBlend mode="normal" in2="BackgroundImageFix" result="effect1_dropShadow_412_560"/>
<feBlend mode="normal" in="SourceGraphic" in2="effect1_dropShadow_412_560" result="shape"/>
</filter>
</defs>
</svg>
